# xmcd CD database file
#
# Track frame offsets:
#	150
#	15057
#	33824
#	42448
#	60829
#	84606
#	103576
#	114470
#	139526
#	155475
#	177864
#	200495
#	227865
#	245245
#	267482
#	290172
#	306408
#	328898
#	349699
#
# Disc length: 4792 seconds
#
# Revision: 0
# Processed by: cddbd v1.5.1PL0 Copyright (c) Steve Scherf et al.
# Submitted via: CDex 1.51
#
DISCID=0f12b613
DTITLE=Various Artist - New Jazz Generation CD 2
DYEAR=2004
DGENRE=Jazz
TTITLE0=Norah Jones - Come Away With Me
TTITLE1=Jamie Cullum - I Get A Kick Out Of You
TTITLE2=Michael Bulbe - Thats How It Goes
TTITLE3=Clare Teal - Miss Otis Regrets
TTITLE4=Eva Cassidy - What A Wonderful World
TTITLE5=Lucie Silvas - What Your Made Of
TTITLE6=Chanz - It Dont Mean A Thing If It Aint Got That Swing
TTITLE7=Guy Barker feat Sting - You Dont Know What Love Is
TTITLE8=Beverley Knight - Shoulda Woulda Coulda
TTITLE9=Dinah Washington Plus Rae and Christian
TTITLE10=US3 - Get Out
TTITLE11=Nina Simone plus Joe Claussell
TTITLE12=Bazillian Girls - Dont Stop
TTITLE13=Sam Brown - Stop
TTITLE14=Peter Cincotti - On The Moon
TTITLE15=Gwyneth Herbert - (Looking For) The Heart Of Saturday Night
TTITLE16=Silje Nergaard - BeStill My Heart
TTITLE17=Cassandra Wilson - Fragile
TTITLE18=Leo Green - Fly Me To The Moon
EXTD=YEAR: 2004
EXTT0=
EXTT1=
EXTT2=
EXTT3=
EXTT4=
EXTT5=
EXTT6=
EXTT7=
EXTT8=
EXTT9=
EXTT10=
EXTT11=
EXTT12=
EXTT13=
EXTT14=
EXTT15=
EXTT16=
EXTT17=
EXTT18=
PLAYORDER=
